# xmcd
#
# Track frame offsets:
#	150
#	10001
#	23911
#	36671
#	48713
#	59401
#	69838
#	79061
#	87051
#	96493
#	106093
#	114643
#	125468
#	134773
#	146843
#	155678
#	165138
#
# Disc length: 2386 seconds
#
# Revision: 0
# Processed by: cddbd v1.4PL0 Copyright (c) Steve Scherf et al.
# Submitted via: dBpowerAMP V4.0
#
DISCID=e8095011
DTITLE=Buddy Holly - The very best of [CD1]
DYEAR=1900
DGENRE=
TTITLE0=Heartbeat
TTITLE1=Love is strange
TTITLE2=Raining in my heart
TTITLE3=Because I love you
TTITLE4=Listen to me
TTITLE5=Girl on my mind
TTITLE6=Learning the game
TTITLE7=Come back baby
TTITLE8=Blue days, black nights
TTITLE9=Love's made a fool of you
TTITLE10=Words of love
TTITLE11=You are my one desire
TTITLE12=You're the one
TTITLE13=Moondreams
TTITLE14=Take your time
TTITLE15=Crying, waiting, hoping
TTITLE16=Buddy Holly not fade away
EXTD=
EXTT0=
EXTT1=
EXTT2=
EXTT3=
EXTT4=
EXTT5=
EXTT6=
EXTT7=
EXTT8=
EXTT9=
EXTT10=
EXTT11=
EXTT12=
EXTT13=
EXTT14=
EXTT15=
EXTT16=
PLAYORDER=
